# xmcd
#
# Track frame offsets:
#	150
#	12628
#	34879
#	59734
#	72442
#	87800
#	120255
#	143043
#	161396
#	183380
#	216306
#
# Disc length: 3181 seconds
#
# Revision: 1
# Processed by: cddbd v1.5.2PL0 Copyright (c) Steve Scherf et al.
# Submitted via: audiograbber 1.83.01
#
DISCID=9c0c6b0b
DTITLE=Tom Killner - Hard Road
DYEAR=2015
DGENRE=Blues /Rock
TTITLE0=Coming Home
TTITLE1=Ain't No Rest for the Wicked
TTITLE2=Feeling Good
TTITLE3=Fake It
TTITLE4=Cocaine Blues
TTITLE5=Hard Road
TTITLE6=Lifting Me Higher
TTITLE7=Whiskey Haze
TTITLE8=Do It Again
TTITLE9=Taking its Toll
TTITLE10=Midnight Call
EXTD=Release of Tom Killner's first album for Cleopatra Records on 4th Septembe
EXTD=r 2015
EXTT0=
EXTT1=
EXTT2=
EXTT3=
EXTT4=
EXTT5=
EXTT6=
EXTT7=
EXTT8=
EXTT9=
EXTT10=
PLAYORDER=
